HIERARCHY
ROOT MidHip
{
    OFFSET 0.0 0.0 0.0
    CHANNELS 6 Xposition Yposition Zposition Zrotation Xrotation Yrotation
    JOINT Spine
    {
        OFFSET 0.0 0.0 14.114376428890862
        CHANNELS 3 Zrotation Xrotation Yrotation
        JOINT MidShoulder
        {
            OFFSET 0.0 0.0 14.11437642889086
            CHANNELS 3 Zrotation Xrotation Yrotation
            JOINT Nose
            {
                OFFSET 0.0 0.0 10.924453949414325
                CHANNELS 3 Zrotation Xrotation Yrotation
                End Site
                {
                    OFFSET 0.0 0.0 4.36978157976573
                }
            }
            JOINT RightShoulder
            {
                OFFSET -9.441655044344756 0.0 0.0
                CHANNELS 3 Zrotation Xrotation Yrotation
                JOINT RightElbow
                {
                    OFFSET -13.869596230230565 0.0 0.0
                    CHANNELS 3 Zrotation Xrotation Yrotation
                    JOINT RightWrist
                    {
                        OFFSET -11.755625707283711 0.0 0.0
                        CHANNELS 3 Zrotation Xrotation Yrotation
                        End Site
                        {
                            OFFSET -3.3249930618844856 3.3249930618844856 0.0
                        }
                        End Site
                        {
                            OFFSET -4.702250282913484 0.0 0.0
                        }
                        End Site
                        {
                            OFFSET -3.3249930618844856 -3.3249930618844856 0.0
                        }
                    }
                }
            }
            JOINT LeftShoulder
            {
                OFFSET 9.441655044344756 0.0 0.0
                CHANNELS 3 Zrotation Xrotation Yrotation
                JOINT LeftElbow
                {
                    OFFSET 13.869596230230565 0.0 0.0
                    CHANNELS 3 Zrotation Xrotation Yrotation
                    JOINT LeftWrist
                    {
                        OFFSET 11.755625707283711 0.0 0.0
                        CHANNELS 3 Zrotation Xrotation Yrotation
                        End Site
                        {
                            OFFSET 3.3249930618844856 3.3249930618844856 0.0
                        }
                        End Site
                        {
                            OFFSET 4.702250282913484 0.0 0.0
                        }
                        End Site
                        {
                            OFFSET 3.3249930618844856 -3.3249930618844856 0.0
                        }
                    }
                }
            }
        }
    }
    JOINT RightHip
    {
        OFFSET -5.362254803615982 0.0 0.0
        CHANNELS 3 Zrotation Xrotation Yrotation
        JOINT RightKnee
        {
            OFFSET 0.0 0.0 -18.772969047396877
            CHANNELS 3 Zrotation Xrotation Yrotation
            JOINT RightAnkle
            {
                OFFSET 0.0 0.0 -20.040860796270387
                CHANNELS 3 Zrotation Xrotation Yrotation
                End Site
                {
                    OFFSET 0.0 5.668411427943369 -5.668411427943369
                }
                End Site
                {
                    OFFSET 0.0 -5.668411427943369 -5.668411427943369
                }
            }
        }
    }
    JOINT LeftHip
    {
        OFFSET 5.362254803615982 0.0 0.0
        CHANNELS 3 Zrotation Xrotation Yrotation
        JOINT LeftKnee
        {
            OFFSET 0.0 0.0 -18.772969047396877
            CHANNELS 3 Zrotation Xrotation Yrotation
            JOINT LeftAnkle
            {
                OFFSET 0.0 0.0 -20.040860796270387
                CHANNELS 3 Zrotation Xrotation Yrotation
                End Site
                {
                    OFFSET 0.0 5.668411427943369 -5.668411427943369
                }
                End Site
                {
                    OFFSET 0.0 -5.668411427943369 -5.668411427943369
                }
            }
        }
    }
}
MOTION
Frames: 5
Frame Time: 0.008341666666666667
-15.37342018496643 42.127767205874235 22.90355369697358 84.33819478154531 6.767190986671767 94.18051774395357 -1.0488290730062857 -9.432956186919009 -5.674203461181678 -8.143260307617222 6.570885010964108e-15 -2.720865777943609e-15 -6.3611093629270335e-15 0.0 0.0 -22.641989430143827 -29.320857131066518 -3.358416163262212 74.55983553740762 6.383706978334488e-15 3.134952252213901e-15 18.62579394130151 33.009513596669876 -10.404261009070664 -5.754556906267173 13.144259656102243 2.81049624959087 -21.211670435215233 -4.882377179812418e-15 8.793274355542526e-15 -21.60969713305942 64.80852936261078 -160.27985118989434 -1.098558813898154 -9.871557387891853 6.600819036853767 4.745591648666297 19.739913846336695 -4.0924338837905 3.1805546814635168e-15 0.0 0.0 -2.7505309469326233 -23.53578862558146 -32.74553181584692 -6.061239722441741 12.276183778882137 7.773881728100975 0.0 0.0 0.0
-15.343113180970692 42.04015177114187 22.608543417595353 84.48596193420407 7.396985344132894 94.50590308245275 -1.0273009406842093 -9.262124369199622 -5.73522834209276 -7.786547199224811 -6.346429556102397e-15 -4.3190764817015813e-16 0.0 0.0 0.0 -21.204944425625918 -32.06297428870767 -2.344802532816841 73.60495436706233 -2.546687535565896e-15 1.905337418404624e-15 15.357623559327077 32.62847119353916 -8.423626594665077 -5.881215159977947 11.616383297393174 3.10604060119273 -24.365406714925236 8.655590816808365e-15 5.122502164936354e-15 -23.500560636017845 66.28263079639201 -158.29254405140568 -1.0532888880665232 -9.49219287660963 6.638598639398901 4.781540249435549 19.85254928583109 -3.9651586409347916 -6.3611093629270335e-15 -6.3611093629270335e-15 -6.3611093629270335e-15 -2.7047897817067015 -23.230554337356295 -32.87378334782305 -5.976071158039503 12.027050588877755 8.221385463017661 0.0 -6.3611093629270335e-15 0.0
-15.292149531138755 41.94671464654405 22.311156402550957 84.63184600325113 8.237244182495642 94.84239740499343 -1.0272689841460545 -9.365334026087497 -6.158337962896484 -7.063512185042806 6.7408838367528845e-15 -5.957172966570606e-15 0.0 0.0 0.0 -19.57387584109493 -34.622993084572435 -0.5458175444824337 73.12001834705927 1.0218911354236234e-14 -7.578172605762795e-15 13.291409598786714 29.99770436744688 -6.735864669407623 -5.606931706601394 11.62749649711281 3.718329079535971 -29.325137861418813 -8.050810172012302e-16 3.0769745916275817e-15 -21.585863432556103 62.37401736374825 -160.682560750938 -0.9799540915442897 -8.941151999071062 6.732203150442509 4.780779323405771 19.83105873453881 -3.937337723865841 0.0 0.0 0.0 -2.663113328750853 -23.143321106960315 -32.99649253959378 -5.977775823280651 11.925975705609071 8.713075695759816 0.0 0.0 0.0
-15.243807470440776 41.855424622813196 22.024945505692376 84.77148276434616 9.02619777064393 95.21307703141008 -1.0410749024501893 -9.421549975742987 -6.501814457767807 -6.647855655897855 -5.243938533939153e-15 -1.942004716583994e-14 0.0 0.0 0.0 -17.243591875426883 -38.01515803695903 0.24828917097558742 71.83180813485917 -1.0038681632628972e-14 -8.437751387008809e-15 8.896938540373926 26.060631822334443 -3.9341476563203512 -6.175381020365839 11.960457369682493 4.657279106774436 -33.11874270415853 9.064858999956735e-16 -3.0486409094690907e-15 -32.236657699453794 35.37732232873494 -159.94250086058267 -0.9290941741027079 -8.423630075386802 6.63508164949317 4.768585813289 19.87270507404212 -3.6627008411063837 0.0 0.0 0.0 -2.6679607736758952 -23.030928380604493 -33.161365831513216 -6.003735568868992 11.9140179340553 9.320144648200998 -1.7655625192200634e-31 6.3611093629270335e-15 3.1805546814635168e-15
-15.201041539243592 41.756703838626855 21.74322365679262 84.89345459354615 9.727551284623624 95.68058154873114 -1.058727888402628 -9.4278188392774 -6.728019185850419 -6.327710339310027 -6.0003336322806524e-15 -6.702493637114294e-15 0.0 0.0 0.0 -14.05660966118665 -41.90080778402117 0.9929497638957874 70.24866994938891 3.65988137801214e-15 5.202785852406183e-15 7.145552776920067 10.457542687412168 -1.3035081337474508 -6.541079279225468 11.662786404579576 5.1844705911866535 -37.274500122981785 8.568605897321825e-15 -5.5015684867700684e-15 -41.375923392790945 27.463231871659012 -157.89104583130674 -0.8919402443629236 -7.963520250126181 6.3236002113218435 4.70980045543135 19.96629145558581 -3.1995028025170407 3.1805546814635168e-15 0.0 0.0 -2.6956070611765344 -22.91082882273925 -33.33314548308638 -6.052775871983327 11.973338972727763 9.803642759031696 0.0 0.0 3.1805546814635176e-15
